SplineFontDB: 3.2
FontName: LanaDoslic
FullName: LanaDoslic
FamilyName: LanaDoslic
Weight: Regular
Copyright: Copyright (c) 2025, lanad
UComments: "2025-10-18: Created with FontForge (http://fontforge.org)"
Version: 001.000
ItalicAngle: 0
UnderlinePosition: -100
UnderlineWidth: 50
Ascent: 800
Descent: 200
InvalidEm: 0
LayerCount: 3
Layer: 0 0 "Back" 1
Layer: 1 0 "Fore" 0
Layer: 2 0 "Back 2" 1
XUID: [1021 705 1879182805 31069]
StyleMap: 0x0000
FSType: 0
OS2Version: 0
OS2_WeightWidthSlopeOnly: 0
OS2_UseTypoMetrics: 1
CreationTime: 1760799009
ModificationTime: 1763321804
OS2TypoAscent: 0
OS2TypoAOffset: 1
OS2TypoDescent: 0
OS2TypoDOffset: 1
OS2TypoLinegap: 90
OS2WinAscent: 0
OS2WinAOffset: 1
OS2WinDescent: 0
OS2WinDOffset: 1
HheadAscent: 0
HheadAOffset: 1
HheadDescent: 0
HheadDOffset: 1
OS2Vendor: 'PfEd'
MarkAttachClasses: 1
DEI: 91125
Encoding: iso8859-2
UnicodeInterp: none
NameList: AGL For New Fonts
DisplaySize: -48
AntiAlias: 1
FitToEm: 0
WinInfo: 0 38 13
BeginPrivate: 0
EndPrivate
BeginChars: 256 24

StartChar: L
Encoding: 76 76 0
Width: 570
Flags: W
LayerCount: 3
Fore
SplineSet
25 733 m 1
 25 733 7 -3 7 -1 c 0
 7 1 425 25 425 33 c 0
 425 41 559 175 559 175 c 1
 141 145 l 1
 179 639 l 1
 25 733 l 1
EndSplineSet
EndChar

StartChar: a
Encoding: 97 97 1
Width: 461
Flags: W
VStem: 388 56<42 86.9355>
LayerCount: 3
Fore
SplineSet
134 136 m 25
 130 217 l 25
 195 250 l 25
 264 223 l 25
 268 146 l 25
 202 114 l 25
 134 136 l 25
86 367 m 1
 10.2744140625 313.06640625 -8.0009765625 208.5546875 8 144 c 1
 23.8359375 20.3056640625 75.3564453125 28.8251953125 102 16 c 0
 112.12109375 11.1279296875 317.986328125 -30.4892578125 346 21 c 0
 359.78515625 46.3369140625 378 87 378 87 c 1
 378 87 388 -2 388 0 c 0
 388 2 444 42 444 42 c 1
 444 415 l 1
 382 375 l 1
 384 319 l 1
 340.204101562 343.206054688 382 331 294 365 c 1
 158 411 86 367 86 367 c 1
EndSplineSet
EndChar

StartChar: n
Encoding: 110 110 2
Width: 426
Flags: W
HStem: 0 21G<14.6796 15 416.318 417> 272 144<162.198 271.814>
VStem: 309 108<23.3559 193.881>
LayerCount: 3
Fore
SplineSet
15 0 m 1
 8 437 l 1
 119 404 l 1
 135 352 l 1
 139.74609375 384.03515625 118.033203125 423.045898438 271 416 c 1
 320.21484375 419.037109375 395 410 405 352 c 1
 417 0 l 1
 417 0 309 22 309 26 c 0
 309 30 289 194 289 194 c 1
 289 194 287 276 227 272 c 1
 169.669921875 269.329101562 136.3359375 239.995117188 127 184 c 1
 127 184 119 32 119 34 c 0
 119 36 15 0 15 0 c 1
EndSplineSet
EndChar

StartChar: D
Encoding: 68 68 3
Width: 572
Flags: W
VStem: 402 160<212.122 383.068>
LayerCount: 3
Fore
SplineSet
140 466 m 1
 254.67578125 460.6875 388.626953125 484.291992188 402 319 c 1
 400.6796875 165.14453125 357.041992188 165.953125 146 166 c 1
 140 466 l 1
20 620 m 1
 20 -2 l 1
 48 0 532 -34 562 250 c 1
 584 712 62 636 20 620 c 1
EndSplineSet
EndChar

StartChar: o
Encoding: 111 111 4
Width: 405
Flags: W
LayerCount: 3
Fore
SplineSet
206 267 m 1
 271 203 l 1
 248.11328125 169.740234375 238.504882812 173.220703125 205 129 c 1
 144 198 l 1
 206 267 l 1
39 327 m 1
 18 304 -23.2445325422 153.342449661 58 55 c 0
 120.013671875 -20.064453125 307.695803429 -26.4497800006 372 73 c 4
 395.275003873 108.996002409 420.854114512 242.367319455 355 339 c 5
 298.16593825 404.941645102 135.230406533 446.574632908 39 327 c 1
EndSplineSet
EndChar

StartChar: Scaron
Encoding: 169 352 5
Width: 642
Flags: W
HStem: 0 278<83 461.319>
LayerCount: 3
Fore
SplineSet
305 667 m 1
 360 585 l 1
 399 666 l 1
 492 649 l 1
 425 521 l 1
 312 522 l 1
 215 653 l 1
 305 667 l 1
440 0 m 0
 80 0 l 1
 175 79 l 1
 175.000002641 100.462462214 483.796625393 45.6495464153 434 144 c 0
 387.413694596 236.009935033 230.11643092 143.973836291 148 227 c 0
 76.9059956021 298.881624442 64.9550832344 395.346175301 169 465 c 0
 282.514655563 540.993428273 540 469.8984375 540 470 c 1
 494 441 452.458007812 401.846679688 452 407 c 1
 351 409 l 1
 263 421 83 316 320 278 c 0
 342.9105775 274.326574072 558.392690999 281.66112979 578 141 c 0
 601 -24 446.286435256 1.89239133913 440 0 c 0
EndSplineSet
EndChar

StartChar: l
Encoding: 108 108 6
Width: 84
Flags: W
VStem: 17 61<0.478008 220.212>
LayerCount: 3
Fore
SplineSet
6 404 m 1
 6 404 17 -2 17 0 c 0
 17 2 78 -3 78 0 c 0
 78 3 66 448 66 448 c 1
 6 404 l 1
EndSplineSet
EndChar

StartChar: i
Encoding: 105 105 7
Width: 144
Flags: W
VStem: 28 74<-1.08545 265.809>
LayerCount: 3
Fore
SplineSet
71 391 m 1
 35 335 l 1
 70 286 l 1
 108 337 l 1
 71 391 l 1
32 266 m 1
 32 266 28 4 28 0 c 0
 28 -4 102 -2 102 0 c 0
 102 2 101 266 101 266 c 1
 32 266 l 1
EndSplineSet
EndChar

StartChar: scaron
Encoding: 185 353 8
Width: 391
Flags: W
HStem: 0 64<59.457 254.233> 1 133<255.49 319>
LayerCount: 3
Fore
SplineSet
140 540 m 1024x00
176 518 m 1
 208 446 l 1
 248 512 l 1
 311 533 l 1
 251 402 l 1
 166 402 l 1
 109 538 l 1
 176 518 l 1
255 82 m 0
 240.9765625 164.2421875 75.4482421875 63.6376953125 60 245 c 0
 39.8046875 482.088867188 395.435546875 342.587890625 383 352 c 1
 320 291 l 1
 318.317382812 276.326171875 189.595703125 337.514648438 164 290 c 0
 88.4296875 149.71484375 301.002929688 159.012695312 319 134 c 0
 431.456054688 -22.294921875 278 6 264 1 c 1x40
 4 0 l 1
 5 -15 49.8046875 63.9013671875 73 64 c 0x80
 123.981445312 64.2158203125 262.708984375 36.7880859375 255 82 c 0
EndSplineSet
EndChar

StartChar: cacute
Encoding: 230 263 9
Width: 405
Flags: W
HStem: 196 82<152.256 325>
LayerCount: 3
Fore
SplineSet
261 404 m 1
 121 362 l 1
 197 340 l 1
 359 388 l 1
 261 404 l 1
369 278 m 1
 227.400390625 263.502929688 -3 368 5 142 c 1
 17 -68.9736328125 392.377929688 18.70703125 395 4 c 0
 396.323242188 -3.4248046875 371 30 339 80 c 1
 333 106 182.706054688 45.013671875 147 144 c 1
 130.67578125 231.107421875 226.93359375 187.924804688 325 196 c 1
 369 278 l 1
EndSplineSet
EndChar

StartChar: Ccaron
Encoding: 200 268 10
Width: 557
Flags: W
HStem: 12 98<291.472 471> 294 96<308.986 453>
LayerCount: 3
Fore
SplineSet
287 586 m 1
 333 508 l 1
 407 588 l 1
 535 594 l 1
 399 436 l 1
 275 440 l 1
 155 578 l 1
 287 586 l 1
531 390 m 1
 239.202148438 405.247070312 42.0927734375 371.221679688 17 167 c 1
 -7.953125 -100.375 598.544921875 22.4931640625 543 12 c 0
 537.104492188 10.88671875 471 110 471 110 c 1
 387 122 214.180664062 34.8544921875 169 204 c 1
 186.102539062 234.969726562 185.618164062 263.06640625 453 294 c 1
 531 390 l 1
EndSplineSet
EndChar

StartChar: Cacute
Encoding: 198 262 11
Width: 668
Flags: W
LayerCount: 3
Fore
SplineSet
371 725 m 1
 211 657 l 1
 327 629 l 1
 495 707 l 1
 371 725 l 1
649 533 m 1
 539 545 65 639.48046875 7 306 c 1
 21.8583984375 -153.83984375 547.271484375 20.3515625 654 66 c 1
 532 144 l 1
 430 126 217 133 197 243 c 1
 125.650390625 470.965820312 459 401 555 447 c 1
 649 533 l 1
EndSplineSet
EndChar

StartChar: ccaron
Encoding: 232 269 12
Width: 520
Flags: W
HStem: 25 74<312.784 381>
LayerCount: 3
Fore
SplineSet
220 471 m 1
 260 421 l 1
 306 479 l 1
 376 490 l 1
 298 360 l 1
 236 361 l 1
 132 492 l 1
 220 471 l 1
489 287 m 1
 159 389 10.025390625 208.373046875 9 127 c 1
 29 -59.3251953125 342.272460938 8.462890625 477 25 c 1
 381 99 l 1
 287 95 l 1
 15.1435546875 74.5009765625 89.26171875 270.934570312 395 229 c 1
 489 287 l 1
EndSplineSet
EndChar

StartChar: Zcaron
Encoding: 174 381 13
Width: 608
Flags: W
HStem: 5 96<239 402.8> 9 82<309.2 479.758>
LayerCount: 3
Fore
SplineSet
240 706 m 1x00
 272 654 l 1
 312 704 l 1
 420 724 l 1
 322 592 l 1
 238 594 l 1
 138 720 l 1
 240 706 l 1x00
109 453 m 1
 339 457 l 1
 47 5 l 1x80
 571 9 l 1
 571 9 521 43 473 91 c 1x40
 239 101 l 1x80
 231.791992188 90.6416015625 433.885742188 424.935546875 523 553 c 1
 13 547 l 1
 109 453 l 1
EndSplineSet
EndChar

StartChar: zcaron
Encoding: 190 382 14
Width: 1000
LayerCount: 3
Fore
SplineSet
394 536 m 1
 444 474 l 1
 478 536 l 1
 558 554 l 1
 504 430 l 1
 386 432 l 1
 308 558 l 1
 394 536 l 1
308 330 m 1
 522 330 l 1
 282 30 l 1
 714 24 l 1
 600 102 l 1
 422 100 l 1
 652 396 l 1
 260 392 l 1
 308 330 l 1
EndSplineSet
EndChar

StartChar: dcroat
Encoding: 240 273 15
Width: 1000
HStem: 464 56<358 440.6>
VStem: 470 80<290 426.667 534.667 630.625>
LayerCount: 3
Fore
SplineSet
334 148 m 1
 288.831054688 157.708984375 287.469726562 183.559570312 290 210 c 1
 306 239.469726562 270 234 338 238 c 1
 410 226 375.770507812 216.380859375 378 198 c 1
 387.106445312 167.096679688 359.483398438 158.188476562 334 148 c 1
470 628 m 1
 476 516 l 0
 327 520 l 0
 358 464 l 0
 476 454 l 0
 468 290 l 1
 408.760742188 316.857421875 322 350 236 284 c 1
 193.664617932 254.389248914 192 244 176 184 c 1
 172 138 166 112 194 98 c 1
 242 78 212.16796875 86.0966796875 242 78 c 1
 308 58 l 1
 346 57.1151801922 384 44.9443324693 422 58 c 9
 462 80 l 25
 466 126 l 1
 496 80 l 1
 560 82 l 1
 551.822222222 450 l 0
 658 456 l 0
 686 528 l 0
 550 516 l 0
 550 670 l 1
 470 628 l 1
EndSplineSet
EndChar

StartChar: Dcroat
Encoding: 208 272 16
Width: 722
Flags: W
HStem: 294 88<106.517 160 325.558 402>
LayerCount: 3
Fore
SplineSet
324 196 m 1
 314.637695312 286 l 0
 402 294 l 0
 442 382 l 0
 317.883789062 382 l 0
 318 462 l 1
 539 487 519.483398438 354.280273438 516 288 c 1
 524 180 396 182 324 196 c 1
162 583 m 5
 163.241210938 388 l 0
 66 394 l 0
 8 298 l 0
 160 290 l 1
 160 290 166.326171875 42.9306640625 168 42 c 0
 332.075195312 -49.197265625 658 -20 688 303 c 5
 672 270 827.970330482 665.735079546 162 583 c 5
EndSplineSet
EndChar

StartChar: d
Encoding: 100 100 17
Width: 263
Flags: W
HStem: 11 188<63.3723 174>
VStem: 200 45<166 389>
LayerCount: 3
Fore
SplineSet
131 131 m 1
 79 102 l 1
 119 59 l 5
 157 96 l 1
 131 131 l 1
247 440 m 1
 245 7 l 1
 220 7 l 1
 206 46 l 25
 174 10 l 25
 67 11 l 1
 53 14 15.81640625 50.9091796875 9 107 c 1
 9 107 46 193 112 199 c 1
 166 198 174.64453125 171.017578125 200 166 c 1
 204 389 l 1
 247 440 l 1
EndSplineSet
EndChar

StartChar: r
Encoding: 114 114 18
Width: 276
Flags: W
HStem: 0 21G<48 96>
VStem: 48 48<0 248.033> 48 40<287 313>
LayerCount: 3
Fore
SplineSet
48 0 m 1xc0
 48 334 l 1
 89 313 l 1
 88 287 l 1xa0
 106.6015625 300.916992188 126.356445312 308.500976562 182 312 c 1
 215.676757812 312.358398438 239.9140625 303.716796875 264 296 c 1
 226 253 l 5
 192.834960938 269.270507812 131.262224239 275.728116659 96 228 c 1
 96 0 l 1
 48 0 l 1xc0
EndSplineSet
EndChar

StartChar: P
Encoding: 80 80 19
Width: 388
Flags: HW
HStem: 0 21G<40.8058 117>
VStem: 36 307<277.112 437.692>
LayerCount: 3
Fore
SplineSet
184 542 m 1
 105 442 l 1
 194 370 l 1
 268 451 l 1
 184 542 l 1
41 0 m 1
 39 636 l 1
 207.780273438 705.180664062 362.14453125 557.620117188 379 458 c 1
 372.46875 320.112304688 202.333984375 299.266601562 116 290 c 1
 116 290 117 -2 117 0 c 0
 117 2 41 0 41 0 c 1
EndSplineSet
EndChar

StartChar: R
Encoding: 82 82 20
Width: 442
Flags: HW
HStem: 0 21G<122.604 192 374 462.92>
LayerCount: 3
Fore
SplineSet
203 529 m 25
 131 443 l 25
 201 399 l 25
 277 465 l 25
 203 529 l 25
21 0 m 1
 39 596 l 1
 405.0859375 608.424804688 423 572 427 516 c 1
 428.586914062 288.002929688 284.956054688 403.634765625 223 326 c 1
 371 0 l 1
 371 0 273 4 273 0 c 8
 273 -4 151 260 151 260 c 25
 125 262 l 25
 125 262 91 -6 91 0 c 0
 91 6 21 0 21 0 c 1
EndSplineSet
EndChar

StartChar: I
Encoding: 73 73 21
Width: 226
Flags: W
VStem: 48 126<0 286.534>
LayerCount: 3
Fore
SplineSet
54 608 m 25
 48 0 l 25
 48 0 174 -4 174 0 c 8
 174 4 184 598 184 598 c 25
 54 608 l 25
EndSplineSet
EndChar

StartChar: O
Encoding: 79 79 22
Width: 702
Flags: W
LayerCount: 3
Fore
SplineSet
206 308 m 25
 316 480 l 25
 466 334 l 25
 360 188 l 25
 206 308 l 25
364 618 m 1
 -30.6953125 602.590820312 24 404 24 354 c 1
 20 -88 130 38 338 10 c 1
 748 12 644.948242188 262.484375 660 370 c 1
 663.321289062 547.421875 573.919921875 638.696289062 364 618 c 1
EndSplineSet
EndChar

StartChar: A
Encoding: 65 65 23
Width: 600
Flags: HW
HStem: 0 21G<40.7559 152> 220 90<251 355>
LayerCount: 3
Fore
SplineSet
299 489 m 25
 249 377 l 25
 353 379 l 25
 299 489 l 25
33 0 m 9
 218 621 l 25
 370 619 l 25
 370 619 576.000004247 -4 576 0 c 4
 575.99999935 0.611971758842 449.999998378 -0.457697523817 450 0 c 4
 450.000028353 7.99999999995 370 252 370 252 c 1
 240 256 l 25
 240 256 152 4 152 0 c 0
 152 -4 33 0 33 0 c 9
EndSplineSet
EndChar
